<svg id="visual" viewBox="0 0 900 900" width="900" height="900" xmlns="http://www.w3.org/2000/svg" xmlns:xlink="http://www.w3.org/1999/xlink" version="1.1"><rect x="0" y="0" width="900" height="900" fill="#EEEDEB"></rect><defs><linearGradient id="grad1_0" x1="0%" y1="100%" x2="100%" y2="0%"><stop offset="30%" stop-color="#eadbc8" stop-opacity="1"></stop><stop offset="70%" stop-color="#eadbc8" stop-opacity="1"></stop></linearGradient></defs><defs><linearGradient id="grad1_1" x1="0%" y1="100%" x2="100%" y2="0%"><stop offset="30%" stop-color="#eadbc8" stop-opacity="1"></stop><stop offset="70%" stop-color="#ebe1d3" stop-opacity="1"></stop></linearGradient></defs><defs><linearGradient id="grad1_2" x1="0%" y1="100%" x2="100%" y2="0%"><stop offset="30%" stop-color="#ece7df" stop-opacity="1"></stop><stop offset="70%" stop-color="#ebe1d3" stop-opacity="1"></stop></linearGradient></defs><defs><linearGradient id="grad1_3" x1="0%" y1="100%" x2="100%" y2="0%"><stop offset="30%" stop-color="#ece7df" stop-opacity="1"></stop><stop offset="70%" stop-color="#eeedeb" stop-opacity="1"></stop></linearGradient></defs><defs><linearGradient id="grad2_0" x1="0%" y1="100%" x2="100%" y2="0%"><stop offset="30%" stop-color="#eadbc8" stop-opacity="1"></stop><stop offset="70%" stop-color="#eadbc8" stop-opacity="1"></stop></linearGradient></defs><defs><linearGradient id="grad2_1" x1="0%" y1="100%" x2="100%" y2="0%"><stop offset="30%" stop-color="#ebe1d3" stop-opacity="1"></stop><stop offset="70%" stop-color="#eadbc8" stop-opacity="1"></stop></linearGradient></defs><defs><linearGradient id="grad2_2" x1="0%" y1="100%" x2="100%" y2="0%"><stop offset="30%" stop-color="#ebe1d3" stop-opacity="1"></stop><stop offset="70%" stop-color="#ece7df" stop-opacity="1"></stop></linearGradient></defs><defs><linearGradient id="grad2_3" x1="0%" y1="100%" x2="100%" y2="0%"><stop offset="30%" stop-color="#eeedeb" stop-opacity="1"></stop><stop offset="70%" stop-color="#ece7df" stop-opacity="1"></stop></linearGradient></defs><g transform="translate(900, 900)"><path d="M-540.9 0C-516.1 -49.1 -491.2 -98.2 -480.3 -156.1C-469.3 -213.9 -472.3 -280.4 -437.6 -318C-403 -355.5 -330.8 -364 -278 -382.7C-225.3 -401.4 -192 -430.3 -148.9 -458.4C-105.9 -486.5 -52.9 -513.7 0 -540.9L0 0Z" fill="#edeae5"></path><path d="M-405.7 0C-387.1 -36.8 -368.4 -73.7 -360.2 -117C-352 -160.4 -354.2 -210.3 -328.2 -238.5C-302.2 -266.6 -248.1 -273 -208.5 -287C-169 -301 -144 -322.7 -111.7 -343.8C-79.4 -364.9 -39.7 -385.3 0 -405.7L0 0Z" fill="#ebe4d9"></path><path d="M-270.5 0C-258 -24.6 -245.6 -49.1 -240.1 -78C-234.7 -106.9 -236.1 -140.2 -218.8 -159C-201.5 -177.7 -165.4 -182 -139 -191.3C-112.6 -200.7 -96 -215.2 -74.5 -229.2C-52.9 -243.2 -26.5 -256.9 0 -270.5L0 0Z" fill="#eadece"></path><path d="M-135.2 0C-129 -12.3 -122.8 -24.6 -120.1 -39C-117.3 -53.5 -118.1 -70.1 -109.4 -79.5C-100.7 -88.9 -82.7 -91 -69.5 -95.7C-56.3 -100.3 -48 -107.6 -37.2 -114.6C-26.5 -121.6 -13.2 -128.4 0 -135.2L0 0Z" fill="#eadbc8"></path></g><g transform="translate(0, 0)"><path d="M540.9 0C485.1 42.8 429.3 85.6 410.9 133.5C392.4 181.4 411.2 234.5 405.3 294.5C399.4 354.4 368.9 421.2 318 437.6C267 454 195.8 420.1 139.4 428.9C83 437.8 41.5 489.3 0 540.9L0 0Z" fill="#edeae5"></path><path d="M405.7 0C363.9 32.1 322 64.2 308.1 100.1C294.3 136.1 308.4 175.9 304 220.9C299.6 265.8 276.7 315.9 238.5 328.2C200.3 340.5 146.8 315.1 104.5 321.7C62.2 328.3 31.1 367 0 405.7L0 0Z" fill="#ebe4d9"></path><path d="M270.5 0C242.6 21.4 214.7 42.8 205.4 66.7C196.2 90.7 205.6 117.3 202.7 147.2C199.7 177.2 184.4 210.6 159 218.8C133.5 227 97.9 210.1 69.7 214.5C41.5 218.9 20.7 244.7 0 270.5L0 0Z" fill="#eadece"></path><path d="M135.2 0C121.3 10.7 107.3 21.4 102.7 33.4C98.1 45.4 102.8 58.6 101.3 73.6C99.9 88.6 92.2 105.3 79.5 109.4C66.8 113.5 48.9 105 34.8 107.2C20.7 109.4 10.4 122.3 0 135.2L0 0Z" fill="#eadbc8"></path></g></svg>